<svg width="53" height="47" viewBox="0 0 53 47" fill="none" xmlns="http://www.w3.org/2000/svg">
<rect width="53" height="47" transform="matrix(-1 0 0 1 53 0)" fill="#F26B89"/>
<path d="M23.1523 18.8408C22.3747 18.0564 22.3802 16.7901 23.1647 16.0124C23.9491 15.2348 25.2155 15.2403 25.9931 16.0248L23.1523 18.8408ZM30.5672 23.4798L31.9875 22.0718C32.3698 22.4575 32.5789 22.982 32.5667 23.5249C32.5544 24.0677 32.322 24.5823 31.9227 24.9504L30.5672 23.4798ZM25.3772 30.9842C24.5651 31.7328 23.2998 31.6813 22.5511 30.8692C21.8025 30.057 21.854 28.7918 22.6661 28.0431L25.3772 30.9842ZM25.9931 16.0248L31.9875 22.0718L29.1468 24.8879L23.1523 18.8408L25.9931 16.0248ZM31.9227 24.9504L25.3772 30.9842L22.6661 28.0431L29.2116 22.0093L31.9227 24.9504Z" fill="white"/>
</svg>
