<svg width="53" height="47" viewBox="0 0 53 47" fill="none" xmlns="http://www.w3.org/2000/svg">
<rect width="53" height="47" fill="#1B1439" fill-opacity="0.65"/>
<path d="M29.8477 18.8408C30.6253 18.0564 30.6198 16.7901 29.8353 16.0124C29.0509 15.2348 27.7845 15.2403 27.0069 16.0248L29.8477 18.8408ZM22.4328 23.4798L21.0125 22.0718C20.6302 22.4575 20.4211 22.982 20.4333 23.5249C20.4456 24.0677 20.678 24.5823 21.0773 24.9504L22.4328 23.4798ZM27.6228 30.9842C28.4349 31.7328 29.7002 31.6813 30.4489 30.8692C31.1975 30.057 31.146 28.7918 30.3339 28.0431L27.6228 30.9842ZM27.0069 16.0248L21.0125 22.0718L23.8532 24.8879L29.8477 18.8408L27.0069 16.0248ZM21.0773 24.9504L27.6228 30.9842L30.3339 28.0431L23.7884 22.0093L21.0773 24.9504Z" fill="#A3A3A3"/>
</svg>
